<?xml version="1.0" standalone="no"?>
<!DOCTYPE svg PUBLIC "-//W3C//DTD SVG 20010904//EN"
 "http://www.w3.org/TR/2001/REC-SVG-20010904/DTD/svg10.dtd">
<svg version="1.0" xmlns="http://www.w3.org/2000/svg"
 width="800.000000pt" height="800.000000pt" viewBox="0 0 800.000000 800.000000"
 preserveAspectRatio="xMidYMid meet">

<g transform="translate(0.000000,800.000000) scale(0.100000,-0.100000)"
fill="#000000" stroke="none">
<path d="M0 5500 c0 -2085 2 -2499 13 -2494 8 3 20 -2 27 -11 10 -12 15 -13
28 -3 8 7 17 12 19 10 2 -1 13 0 26 3 12 2 54 7 93 9 40 2 82 10 94 16 18 9
24 9 30 0 5 -8 10 0 15 21 3 19 18 71 32 117 25 77 42 98 59 71 11 -18 127
-67 180 -76 l49 -9 -4 -68 c-2 -37 0 -106 4 -153 6 -79 8 -83 24 -69 24 22 43
20 75 -5 25 -19 36 -21 103 -16 64 5 86 2 141 -18 75 -27 98 -25 241 20 87 28
310 141 318 161 2 7 -3 26 -12 43 -9 18 -13 36 -10 41 16 26 117 63 218 80 74
13 91 7 101 -33 3 -12 4 10 2 48 -3 64 -2 67 8 33 14 -45 24 -57 36 -38 6 8
10 10 10 4 0 -25 57 -33 253 -36 81 -1 147 -5 147 -10 0 -4 16 -8 35 -8 20 0
47 -8 62 -17 18 -12 43 -16 88 -15 34 2 74 -2 87 -7 15 -6 50 -6 84 -2 50 7
69 5 129 -16 38 -14 75 -25 81 -26 6 0 9 -12 6 -26 -6 -32 4 -24 26 21 22 42
52 50 52 13 0 -32 70 -248 84 -257 6 -4 13 -2 17 4 4 6 18 8 34 4 26 -7 27 -8
9 -21 -24 -18 -64 -19 -64 -2 0 8 -4 7 -10 -3 -14 -21 -12 -30 5 -30 8 0 15
-7 15 -15 0 -20 16 -19 38 3 11 9 28 24 39 33 11 9 22 22 25 29 2 7 9 11 15 9
7 -2 1 -20 -17 -46 -16 -23 -26 -44 -23 -47 4 -3 1 -6 -5 -6 -7 0 -12 -7 -12
-15 0 -8 -6 -12 -14 -9 -8 3 -17 1 -21 -5 -3 -6 -16 -11 -27 -11 -20 0 -20 1
-4 19 18 20 8 35 -17 25 -18 -6 -31 25 -21 50 4 11 1 16 -11 16 -11 0 -15 -5
-12 -14 3 -9 -2 -16 -15 -19 -20 -6 -20 -6 2 -34 l22 -28 -21 -3 c-27 -4 -27
-22 -1 -29 11 -3 20 -12 20 -19 0 -10 -15 -14 -57 -14 -89 0 -98 5 -112 59
-18 71 -35 91 -79 91 -51 0 -68 -12 -46 -31 18 -15 64 -105 64 -126 0 -7 -7
-13 -15 -13 -9 0 -20 -10 -26 -23 -8 -17 -25 -26 -67 -36 -255 -58 -266 -61
-304 -99 -51 -49 -61 -82 -49 -168 15 -105 54 -214 152 -424 52 -113 57 -129
51 -170 l-7 -45 -125 2 c-173 3 -180 5 -208 54 -20 35 -37 48 -110 82 -48 22
-109 45 -137 52 l-50 11 -27 120 c-16 73 -23 123 -17 129 5 5 9 18 9 28 0 16
-5 18 -28 14 -16 -3 -63 -9 -105 -13 l-77 -7 0 34 c1 19 6 75 14 125 14 101
12 114 -14 114 -20 0 -22 -9 -41 -172 l-12 -107 -39 -6 c-68 -12 -72 -1 -63
150 5 71 7 158 6 192 -3 76 20 165 65 256 39 76 41 86 17 65 -15 -12 -105 -51
-123 -53 -3 0 -11 -4 -19 -9 -7 -5 -36 -12 -65 -16 l-51 -8 45 -1 c35 -2 41
-4 25 -11 -16 -7 -13 -9 17 -9 21 -1 37 2 35 7 -4 12 7 14 31 5 21 -8 22 -10
8 -22 -13 -11 -16 -38 -16 -155 0 -164 -4 -184 -36 -192 -13 -3 -26 -15 -29
-25 -4 -13 -16 -19 -36 -19 -16 0 -28 -3 -28 -7 3 -20 -2 -24 -16 -13 -12 10
-15 10 -15 0 0 -7 8 -19 18 -26 14 -10 20 -10 33 2 23 21 92 55 98 49 6 -6 19
-99 20 -141 l1 -31 -42 8 c-24 4 -46 8 -49 9 -4 0 -5 -66 -2 -148 3 -81 2
-144 -2 -140 -5 5 -7 39 -6 77 l2 68 -27 -5 c-19 -3 -25 -1 -20 7 4 6 16 11
27 11 24 0 25 17 2 22 -25 5 -93 -24 -93 -39 0 -19 -13 -16 -32 6 -9 10 -22
23 -30 27 -8 5 -27 37 -43 71 -22 47 -31 59 -38 48 -10 -19 -22 -19 -42 1 -19
20 -33 11 -16 -10 10 -12 8 -17 -9 -26 -17 -9 -19 -14 -10 -25 7 -8 8 -20 4
-27 -24 -38 5 -82 46 -71 26 7 47 -42 28 -64 -8 -10 -8 -17 -1 -21 25 -17 70
-157 53 -167 -5 -3 -5 -19 0 -35 10 -35 3 -67 -16 -74 -24 -9 -16 -29 10 -22
18 4 23 2 22 -12 0 -10 6 -16 16 -16 10 1 18 -3 18 -10 0 -18 -38 -46 -63 -47
-35 -1 40 -27 83 -29 l35 -1 -28 -15 c-15 -8 -27 -23 -27 -34 0 -12 -7 -20
-17 -21 -17 0 -17 -1 -1 -7 15 -6 14 -9 -7 -19 -15 -6 -27 -7 -31 -2 -3 5 -14
9 -24 9 -14 0 -20 9 -24 33 -12 80 -14 153 -5 205 8 42 7 65 -2 87 -9 22 -13
26 -16 13 -4 -15 -18 -17 -131 -13 -70 2 -130 4 -133 5 -3 0 -14 18 -24 41
-10 22 -31 49 -47 60 -15 11 -28 24 -28 29 0 18 -51 115 -76 145 l-24 30 6
-60 c3 -33 14 -79 25 -102 24 -54 24 -54 -5 -49 -14 2 -40 21 -60 40 -19 20
-44 36 -55 36 -14 0 -20 6 -18 17 1 10 -9 42 -23 70 -19 40 -32 55 -55 62
l-30 9 29 1 c28 1 28 2 12 20 -9 10 -35 21 -56 25 -51 8 -94 27 -80 36 6 4 30
0 53 -8 32 -11 57 -13 102 -6 l60 8 -55 6 c-30 3 -89 20 -130 38 -73 31 -124
44 -90 22 13 -8 13 -10 -2 -10 -10 0 -22 -9 -28 -20 -6 -11 -18 -20 -27 -20
-16 0 -16 -1 0 -12 13 -11 15 -20 7 -53 -9 -38 -6 -44 41 -116 27 -42 61 -87
75 -100 15 -13 46 -50 71 -81 36 -47 50 -58 74 -58 31 0 41 26 14 36 -8 4 -15
10 -15 16 0 5 -7 16 -15 25 -9 8 -14 18 -11 20 7 8 79 -20 101 -39 14 -11 40
-18 78 -19 43 -2 54 -5 47 -14 -5 -6 -7 -15 -3 -18 3 -4 -9 -7 -27 -7 -31 0
-33 -1 -19 -16 13 -12 20 -13 42 -3 15 7 24 16 21 20 -3 5 0 9 5 9 6 0 11 -4
11 -9 0 -5 16 -26 35 -47 42 -46 70 -94 55 -94 -5 0 -10 4 -10 9 0 5 -27 3
-61 -5 -33 -8 -65 -11 -71 -8 -6 4 -8 3 -5 -2 3 -6 -9 -11 -29 -11 -47 -1 -34
13 31 33 30 10 55 22 55 27 0 4 -10 5 -22 2 -13 -4 -31 -9 -41 -12 -11 -3 -28
4 -40 15 -12 11 -37 27 -54 36 -18 9 -32 22 -30 28 1 7 -10 13 -26 13 -23 1
-26 -2 -21 -20 8 -26 45 -62 70 -67 20 -4 22 -17 10 -54 -6 -19 -2 -22 38 -27
33 -5 56 -1 90 13 27 13 63 20 93 19 48 -2 63 -11 63 -38 0 -11 -4 -9 -16 5
-8 10 -13 14 -10 7 4 -8 -7 -10 -36 -7 -27 2 -38 0 -29 -5 7 -5 22 -6 32 -4
10 3 19 0 19 -6 0 -6 -5 -11 -11 -11 -5 0 -7 -5 -3 -12 5 -8 2 -9 -10 -5 -13
5 -17 3 -13 -7 3 -8 -1 -17 -9 -20 -9 -3 -12 -1 -9 4 10 16 -5 11 -32 -10 -14
-11 -36 -20 -49 -20 -12 0 -24 -5 -26 -11 -4 -11 -252 2 -264 14 -4 3 -8 27
-10 53 -3 38 -1 45 12 40 8 -3 24 -1 36 5 15 8 24 7 37 -5 9 -8 32 -17 51 -18
35 -3 35 -3 32 36 -2 26 -12 48 -27 62 -13 12 -33 41 -45 65 -13 24 -28 47
-34 51 -6 4 -44 8 -84 8 l-74 0 7 88 c6 72 5 90 -8 100 -20 17 -25 7 -33 -74
-12 -117 -7 -113 -118 -107 l-96 6 0 -862 0 -861 4000 0 4000 0 0 4000 0 4000
-532 -2 c-293 -1 -509 -3 -480 -5 38 -3 52 -8 52 -19 0 -8 9 -25 21 -37 20
-21 21 -21 34 -4 12 16 17 17 37 6 l23 -13 -30 -8 c-24 -6 -22 -7 13 -4 78 7
43 -12 -45 -24 -49 -7 -135 -20 -193 -31 -214 -38 -653 -111 -895 -149 -137
-22 -315 -51 -395 -65 -80 -14 -203 -32 -275 -40 -174 -20 -812 -100 -1000
-126 -141 -19 -244 -32 -625 -79 -85 -10 -222 -28 -305 -39 -544 -73 -990
-134 -1110 -151 -502 -69 -894 -114 -948 -107 -70 9 -173 69 -203 117 -8 14
-8 14 6 0 19 -20 90 -23 90 -4 0 8 3 14 8 15 33 3 58 12 82 29 16 11 35 20 44
20 9 0 16 4 16 9 0 8 36 17 100 25 14 2 42 10 64 19 21 9 42 14 47 12 4 -3 25
3 46 13 21 11 44 17 51 15 7 -3 27 1 45 7 36 14 115 30 167 34 19 1 45 8 57
14 12 7 29 9 37 6 9 -3 31 3 49 15 19 12 47 21 63 21 51 0 199 24 205 33 4 5
25 8 47 5 22 -2 38 0 36 3 -2 4 15 9 39 12 23 3 65 10 92 16 28 6 111 18 185
26 150 18 157 19 184 30 10 5 26 4 34 -2 20 -12 122 2 132 18 5 6 17 9 29 6
12 -3 21 -1 21 5 0 5 10 6 22 2 13 -4 66 -6 118 -5 93 2 95 3 121 34 24 28 28
30 34 15 9 -22 25 -24 25 -3 0 15 20 18 115 16 29 0 35 2 20 8 -16 7 -14 9 14
14 49 10 89 8 93 -4 2 -7 12 -7 31 0 16 6 50 11 77 11 33 0 50 5 54 15 4 10
19 15 49 15 53 0 108 10 103 19 -2 3 27 4 66 3 77 -4 122 3 113 18 -3 6 2 10
12 11 10 0 51 2 91 4 39 1 78 7 85 13 20 17 291 37 281 21 -3 -5 13 -9 35 -9
28 0 41 4 41 14 0 10 21 16 79 21 44 4 91 13 106 21 18 9 61 14 124 14 53 0
102 4 110 9 7 5 26 5 42 1 20 -6 29 -4 33 6 7 19 26 18 26 -1 0 -20 20 -19 34
1 11 14 16 13 50 -7 36 -21 40 -21 51 -6 7 9 20 17 29 17 10 0 14 5 11 10 -3
6 -2 10 4 10 5 0 13 -4 16 -10 4 -6 17 -4 36 6 17 8 37 13 45 10 7 -3 16 -1
19 4 3 5 12 7 21 3 8 -3 21 2 27 11 7 10 32 20 55 23 23 3 42 10 42 14 0 5
-1240 9 -2840 9 l-2840 0 0 -2500z m5060 2410 c0 -5 -4 -10 -10 -10 -5 0 -10
5 -10 10 0 6 5 10 10 10 6 0 10 -4 10 -10z m305 0 c-3 -5 -12 -7 -20 -3 -21 7
-19 13 6 13 11 0 18 -4 14 -10z m-2328 -306 c-3 -3 -12 -4 -19 -1 -8 3 -5 6 6
6 11 1 17 -2 13 -5z m3709 -451 c-8 -294 -32 -1517 -42 -2098 -4 -225 -8 -417
-10 -425 -1 -8 -3 -122 -3 -252 l-1 -238 -35 0 c-54 0 -58 21 -51 252 4 157 2
208 -10 255 -27 105 -83 163 -180 184 -148 32 -261 19 -320 -37 -24 -22 -35
-40 -32 -52 3 -10 -1 -23 -8 -30 -7 -7 -18 -31 -25 -55 -6 -23 -17 -63 -25
-89 -17 -57 -19 -91 -4 -68 7 11 8 6 4 -16 -4 -19 -1 -34 5 -38 16 -10 4 -26
-14 -19 -8 3 -22 2 -30 -1 -13 -4 -14 -10 -5 -26 15 -27 31 -25 66 9 20 20 35
27 44 21 7 -4 28 -6 47 -4 22 3 32 1 28 -6 -3 -5 -24 -10 -46 -10 -63 0 -79
-13 -79 -66 0 -51 28 -184 41 -199 5 -5 9 -14 9 -20 0 -12 -14 -12 -1100 -55
-871 -34 -1025 -42 -1032 -54 -4 -6 -10 -7 -15 -3 -4 5 -2 11 5 16 9 5 4 33
-20 112 -31 96 -37 108 -88 157 -73 72 -101 85 -165 80 -67 -6 -137 -46 -173
-100 -25 -38 -27 -49 -24 -122 1 -45 3 -94 5 -111 l2 -30 -140 -7 c-131 -7
-549 -23 -1258 -49 -163 -6 -303 -9 -311 -6 -11 5 -14 39 -15 174 -1 229 -42
1981 -57 2451 -3 105 -3 192 0 192 3 0 112 13 243 29 131 16 267 32 303 35 36
3 153 17 260 30 310 40 441 56 665 81 116 14 262 31 325 40 63 8 134 15 157
15 23 0 44 4 48 10 3 5 12 7 19 4 8 -3 76 4 152 15 77 11 155 22 174 25 19 3
69 7 110 10 41 3 113 12 160 20 47 8 150 22 230 31 80 8 206 24 280 35 74 11
178 24 230 30 52 6 142 18 200 26 213 30 256 36 305 40 28 2 115 13 195 25 80
12 155 22 167 23 11 0 19 5 16 10 -3 4 4 5 16 1 26 -8 222 15 215 26 -2 4 1
11 7 15 8 5 9 3 4 -6 -6 -10 4 -11 51 -6 97 11 366 47 414 56 25 4 63 8 84 9
l39 1 -7 -247z m-539 201 c-3 -3 -12 -4 -19 -1 -8 3 -5 6 6 6 11 1 17 -2 13
-5z m-100 -10 c-3 -3 -12 -4 -19 -1 -8 3 -5 6 6 6 11 1 17 -2 13 -5z m-219
-11 c-10 -2 -26 -2 -35 0 -10 3 -2 5 17 5 19 0 27 -2 18 -5z m87 -3 c-11 -5
-29 -8 -40 -8 -16 0 -15 2 5 8 34 11 60 11 35 0z m-450 -60 c-3 -5 -1 -10 6
-10 7 0 10 -2 8 -5 -3 -2 -16 -1 -29 2 -22 6 -23 7 -4 14 26 10 26 10 19 -1z
m60 0 c-27 -12 -43 -12 -25 0 8 5 22 9 30 9 10 0 8 -3 -5 -9z m-290 -10 c13
-5 14 -9 5 -9 -8 0 -24 4 -35 9 -13 5 -14 9 -5 9 8 0 24 -4 35 -9z m22 -26
c-3 -3 -12 -4 -19 -1 -8 3 -5 6 6 6 11 1 17 -2 13 -5z m-570 -80 c-3 -3 -12
-4 -19 -1 -8 3 -5 6 6 6 11 1 17 -2 13 -5z m-674 -51 c-7 -2 -19 -2 -25 0 -7
3 -2 5 12 5 14 0 19 -2 13 -5z m199 -6 c-12 -5 -26 -5 -36 0 -12 7 -7 9 20 9
30 0 33 -2 16 -9z m-115 -3 c-3 -3 -12 -4 -19 -1 -8 3 -5 6 6 6 11 1 17 -2 13
-5z m-114 -11 c-7 -2 -21 -2 -30 0 -10 3 -4 5 12 5 17 0 24 -2 18 -5z m110
-10 c-7 -2 -19 -2 -25 0 -7 3 -2 5 12 5 14 0 19 -2 13 -5z m-430 -40 c-7 -2
-21 -2 -30 0 -10 3 -4 5 12 5 17 0 24 -2 18 -5z m-188 -13 c-19 -8 -19 -9 -1
-9 11 -1 17 -4 13 -7 -3 -4 -13 -4 -22 0 -20 7 -10 26 13 25 14 0 13 -2 -3 -9z
m138 -7 c-7 -2 -19 -2 -25 0 -7 3 -2 5 12 5 14 0 19 -2 13 -5z m-286 -19 c-3
-3 -12 -4 -19 -1 -8 3 -5 6 6 6 11 1 17 -2 13 -5z m-260 -40 c-3 -3 -12 -4
-19 -1 -8 3 -5 6 6 6 11 1 17 -2 13 -5z m-120 -11 c-20 -2 -52 -2 -70 0 -17 2
0 4 38 4 39 0 53 -2 32 -4z m-260 -9 c-3 -3 -12 -4 -19 -1 -8 3 -5 6 6 6 11 1
17 -2 13 -5z m0 -20 c-3 -3 -12 -4 -19 -1 -8 3 -5 6 6 6 11 1 17 -2 13 -5z
m-422 -44 c-3 -5 -12 -10 -18 -10 -7 0 -6 4 3 10 19 12 23 12 15 0z m3788
-2278 c-13 -14 -23 -32 -23 -41 -1 -14 -2 -14 -11 2 -5 9 -19 17 -29 17 -11 0
-20 3 -20 6 0 12 29 34 45 34 11 0 15 5 12 14 -4 11 0 12 22 3 l27 -10 -23
-25z m167 18 c0 -5 -7 -10 -16 -10 -8 0 -12 5 -9 10 3 6 10 10 16 10 5 0 9 -4
9 -10z m-125 -30 c-3 -5 -13 -10 -21 -10 -8 0 -14 5 -14 10 0 6 9 10 21 10 11
0 17 -4 14 -10z m112 -37 c-3 -10 -5 -4 -5 12 0 17 2 24 5 18 2 -7 2 -21 0
-30z m8 -53 c3 -5 -1 -10 -10 -10 -9 0 -13 5 -10 10 3 6 8 10 10 10 2 0 7 -4
10 -10z m-5034 -171 c16 -17 32 -43 35 -58 3 -14 15 -53 25 -86 59 -178 63
-242 19 -303 -17 -23 -34 -42 -40 -42 -5 0 -7 -6 -4 -13 3 -8 -10 -36 -28 -62
-63 -94 -194 -135 -255 -79 l-28 25 28 -17 29 -17 -26 38 c-15 21 -29 50 -32
64 -2 14 -11 51 -19 81 -10 42 -11 57 -2 63 8 6 5 7 -6 3 -27 -9 -54 9 -82 54
-28 44 -30 62 -13 90 12 19 13 19 45 -2 l34 -20 -1 33 c-1 19 2 46 6 62 5 22
3 26 -8 22 -24 -9 -32 51 -11 79 20 26 123 77 208 102 70 20 94 17 126 -17z
m4909 -63 c0 -3 -4 -8 -10 -11 -5 -3 -10 -1 -10 4 0 6 5 11 10 11 6 0 10 -2
10 -4z m-2329 -70 c10 -22 19 -40 19 -41 0 -7 -81 -26 -101 -23 -19 2 -25 10
-27 36 -3 26 3 39 29 63 37 34 49 29 80 -35z m-2949 -18 c-8 -8 -9 -4 -5 13 4
13 8 18 11 10 2 -7 -1 -18 -6 -23z m2738 18 c0 -8 -7 -19 -15 -26 -13 -11 -19
-9 -35 8 -11 12 -20 22 -20 24 0 2 16 4 35 5 23 1 35 -3 35 -11z m34 -63 c-3
-10 -8 -25 -11 -33 -4 -13 -7 -12 -18 3 -17 23 -9 47 16 47 13 0 17 -5 13 -17z
m3052 -25 c5 -8 0 -9 -14 -6 -12 4 -20 2 -17 -2 3 -4 -7 -13 -23 -18 -15 -6
-43 -25 -62 -42 -26 -23 -29 -28 -10 -18 14 7 34 20 45 29 11 8 33 21 50 28
30 13 30 13 11 -8 -11 -12 -26 -21 -35 -22 -9 0 -11 -3 -5 -5 6 -3 29 4 52 14
33 15 39 21 29 31 -21 21 190 -101 222 -128 l30 -26 -26 -2 c-16 0 -21 2 -13
7 9 6 9 9 0 15 -16 10 -27 -9 -26 -43 1 -20 6 -27 21 -27 13 0 19 -7 18 -18
-1 -13 4 -17 15 -13 15 5 15 4 0 -8 -22 -16 -23 -30 -3 -22 11 4 15 -2 14 -27
0 -25 -2 -28 -8 -13 -5 13 -10 16 -15 8 -4 -6 -2 -20 4 -31 14 -26 13 -38 -2
-23 -17 17 -39 15 -62 -7 -12 -10 -41 -30 -66 -46 -25 -15 -37 -24 -27 -21 10
3 35 6 55 6 28 0 33 3 22 10 -12 8 -11 10 6 10 17 0 20 -5 16 -25 -2 -14 -9
-25 -14 -25 -5 0 -6 -5 -3 -10 4 -6 1 -17 -5 -25 -6 -8 -9 -18 -6 -23 3 -5
-15 -18 -40 -30 -48 -24 -50 -42 -6 -42 l27 -1 -25 -15 c-24 -15 -24 -15 18
-9 53 7 53 -1 2 -24 -36 -16 -39 -20 -25 -31 21 -18 43 -62 38 -76 -3 -8 -20
-7 -61 2 -31 8 -74 14 -94 14 -31 0 -38 -4 -38 -19 0 -11 -11 -28 -24 -38 -19
-15 -26 -35 -35 -93 -7 -41 -13 -75 -14 -77 -11 -11 -80 23 -98 48 -13 19 -27
28 -37 24 -24 -7 -94 42 -134 95 -18 25 -50 53 -71 62 -49 24 -73 70 -57 109
14 32 15 73 5 159 l-7 60 -20 -25 c-25 -32 -36 -31 -78 3 -61 50 -75 54 -136
42 -53 -11 -56 -11 -80 13 l-24 24 44 34 c47 37 89 84 99 110 3 11 -4 26 -19
40 -35 32 -30 45 24 65 26 10 59 27 75 38 21 16 30 17 39 8 10 -10 10 -17 0
-32 -14 -23 -10 -25 16 -9 22 14 72 -4 72 -26 0 -18 16 -20 24 -2 3 6 3 1 0
-12 -4 -16 -3 -21 5 -17 6 4 11 0 12 -11 0 -10 3 -13 6 -5 2 6 12 12 22 12 9
0 26 7 37 15 22 16 38 20 29 6 -3 -5 -1 -12 5 -16 6 -4 8 -11 5 -16 -12 -18
21 -8 75 22 30 17 71 40 91 51 20 11 63 40 95 64 61 46 78 52 90 32z m-3006
-12 c0 -3 -4 -8 -10 -11 -5 -3 -10 -1 -10 4 0 6 5 11 10 11 6 0 10 -2 10 -4z
m180 0 c0 -2 -7 -7 -16 -10 -8 -3 -12 -2 -9 4 6 10 25 14 25 6z m-267 -23 c-7
-2 -19 -2 -25 0 -7 3 -2 5 12 5 14 0 19 -2 13 -5z m107 -23 c0 -5 -2 -10 -4
-10 -3 0 -8 5 -11 10 -3 6 -1 10 4 10 6 0 11 -4 11 -10z m191 -21 c8 -17 6
-19 -21 -19 -25 0 -30 4 -30 24 0 19 4 23 20 19 11 -3 25 -14 31 -24z m-293
-10 c19 -29 11 -31 -18 -3 -17 17 -20 24 -10 24 8 0 21 -9 28 -21z m152 0 c16
-29 -4 -49 -47 -49 -26 0 -36 5 -42 23 -7 19 -5 23 21 28 16 4 32 9 35 13 11
11 22 6 33 -15z m75 -47 c-8 -8 -25 10 -19 20 4 6 9 5 15 -3 4 -7 6 -15 4 -17z
m-95 -22 c0 -5 -5 -10 -11 -10 -5 0 -7 5 -4 10 3 6 8 10 11 10 2 0 4 -4 4 -10z
m94 -14 c3 2 3 0 -2 -6 -9 -11 -52 -2 -52 11 0 5 11 4 24 -1 13 -5 27 -7 30
-4z m21 -45 c3 -5 -4 -13 -16 -16 -23 -8 -34 -1 -24 14 8 13 32 14 40 2z m108
-25 c36 -26 122 -56 162 -56 64 0 147 -64 188 -145 21 -42 59 -228 63 -303 1
-35 5 -75 9 -89 6 -24 5 -24 -17 -9 -13 9 -42 16 -68 16 -33 0 -41 -3 -30 -10
12 -8 11 -10 -7 -10 -12 0 -25 -4 -28 -10 -3 -5 3 -10 14 -10 24 0 27 -9 23
-65 -3 -30 -9 -45 -18 -45 -17 0 -17 5 -4 30 12 23 -4 37 -25 20 -9 -7 -15 -8
-20 0 -13 21 -25 9 -39 -40 -11 -36 -12 -58 -6 -76 15 -38 12 -44 -16 -44 -19
0 -25 4 -20 15 3 8 1 15 -4 15 -6 0 -10 -6 -10 -12 0 -8 -5 -5 -11 4 -10 18
-6 330 5 398 5 28 4 30 -3 10 -8 -22 -9 -20 -10 18 -1 23 -5 42 -10 42 -10 0
-25 -109 -20 -151 1 -13 -3 -37 -9 -52 -7 -16 -12 -45 -13 -65 0 -20 -12 -84
-27 -142 l-27 -104 -46 -17 c-25 -10 -77 -20 -115 -23 -103 -9 -283 -36 -308
-47 -16 -7 -12 -8 19 -5 209 19 299 28 350 36 38 6 63 6 69 0 7 -7 3 -10 -11
-10 -12 0 -24 -4 -27 -8 -5 -9 -33 -16 -261 -66 -93 -20 -112 -22 -121 -10
-12 15 -61 19 -83 5 -21 -14 5 -24 43 -17 29 6 34 3 40 -16 3 -13 6 -40 6 -60
0 -32 4 -39 26 -44 14 -4 52 -4 85 -1 32 3 59 1 59 -4 0 -5 -8 -9 -17 -10 -15
0 -15 -2 2 -9 11 -5 15 -9 8 -9 -7 -1 -22 4 -35 9 -15 7 -43 7 -83 1 l-60 -10
65 4 c59 3 67 1 83 -21 20 -27 15 -29 -49 -13 -41 11 -48 10 -73 -9 -24 -17
-36 -19 -87 -13 -32 5 -70 13 -84 19 l-25 10 30 7 c17 4 44 12 60 18 17 6 36
12 43 14 18 2 29 13 14 13 -6 0 -16 16 -22 35 l-11 35 -33 -36 c-31 -33 -36
-36 -62 -26 -18 6 -22 11 -11 11 10 1 17 9 17 21 l0 21 -22 -21 c-27 -25 -121
-30 -112 -6 6 15 -29 32 -45 22 -4 -3 -14 -34 -21 -68 -7 -35 -15 -55 -18 -45
-2 10 1 32 7 49 6 17 11 42 11 55 0 18 7 25 30 30 17 3 30 10 30 16 0 6 6 4
13 -5 9 -13 21 -15 59 -9 26 4 53 4 60 0 7 -4 18 -3 25 3 7 5 24 7 39 4 19 -5
25 -3 22 6 -4 9 -21 12 -57 10 l-52 -4 16 39 c9 21 19 43 21 49 3 6 17 15 32
21 27 11 27 11 5 18 -19 6 -22 12 -17 34 4 14 14 40 24 56 24 44 8 179 -26
215 -13 14 -31 47 -40 72 -8 26 -23 53 -32 60 -13 11 -14 11 -8 0 5 -8 9 -27
10 -43 1 -16 12 -39 24 -52 22 -24 30 -43 13 -32 -10 6 -4 -111 8 -175 5 -24
1 -53 -11 -90 -31 -91 -29 -87 -39 -65 -8 17 -9 16 -6 -7 2 -15 0 -25 -4 -22
-5 3 -9 0 -9 -5 0 -6 4 -11 9 -11 5 0 7 -9 4 -20 -6 -23 -38 -24 -61 -2 -16
14 -66 17 -57 2 4 -6 -5 -10 -19 -10 -28 0 -30 3 -17 28 5 9 12 61 15 115 5
78 3 97 -8 97 -14 0 -25 -57 -27 -134 0 -23 -4 -50 -8 -61 l-8 -20 -6 20 c-4
11 -9 58 -12 104 -3 45 -8 87 -11 92 -3 5 18 9 45 9 28 0 51 3 51 8 1 4 3 48
5 97 11 212 24 274 80 360 49 76 65 89 180 146 58 29 105 59 105 66 0 7 4 13
10 13 5 0 7 -7 4 -15 -10 -24 16 -83 47 -110 44 -37 95 -34 146 8 66 53 130
139 138 185 4 23 9 42 12 42 2 0 19 -11 36 -24z m1733 -45 c4 -17 16 -33 30
-40 16 -7 22 -16 17 -27 -6 -15 -9 -14 -27 7 -12 13 -34 32 -50 43 -23 15 -30
16 -37 5 -7 -12 -9 -12 -9 0 0 17 29 40 53 41 11 0 19 -10 23 -29z m-1838 0
c-16 -13 -33 -18 -48 -14 l-22 6 23 13 c13 7 35 13 48 14 l24 0 -25 -19z
m1746 -30 c-1 -19 3 -22 23 -18 13 2 26 0 29 -4 3 -5 0 -9 -7 -9 -10 0 -10 -3
-1 -12 32 -32 -2 -38 -42 -7 -21 17 -26 18 -26 5 0 -9 -4 -16 -10 -16 -5 0
-10 -9 -10 -20 0 -24 8 -25 31 -4 11 10 19 12 24 5 3 -6 2 -11 -3 -11 -6 0 -8
-9 -5 -20 7 -25 -3 -25 -45 0 -44 27 -50 25 -22 -6 19 -19 21 -27 12 -33 -7
-4 -12 -14 -10 -22 2 -10 -6 -14 -27 -14 -27 1 -30 5 -33 35 -4 34 33 120 50
120 4 0 15 14 23 31 19 36 50 36 49 0z m274 -106 c0 -14 -10 -28 -24 -36 -18
-9 -21 -15 -13 -26 6 -7 18 -13 25 -13 8 0 14 -9 14 -20 0 -11 -5 -20 -12 -20
-11 0 -2 -14 10 -16 4 0 26 -4 49 -8 39 -7 42 -10 32 -28 -7 -13 -16 -17 -27
-13 -29 12 -45 11 -48 -5 -11 -49 -9 -54 26 -61 18 -4 39 -14 45 -22 5 -7 20
-19 33 -26 18 -9 22 -20 22 -56 0 -35 -3 -43 -15 -39 -8 4 -15 15 -15 25 0 10
-4 19 -10 19 -5 0 -7 -13 -4 -28 4 -19 0 -34 -10 -45 -9 -8 -16 -18 -16 -21 0
-9 24 -2 32 8 23 32 87 7 113 -44 11 -22 59 -96 108 -165 48 -69 87 -128 87
-130 0 -3 -10 -5 -21 -5 -17 0 -19 -3 -10 -14 9 -11 9 -15 -1 -19 -7 -2 -10
-7 -7 -11 3 -4 18 -2 33 4 32 12 58 2 33 -12 -12 -6 -15 -17 -10 -40 4 -22 2
-33 -10 -40 -10 -5 -17 -16 -17 -23 0 -8 -6 -15 -14 -15 -8 0 -21 -8 -28 -17
-7 -10 -34 -28 -60 -40 -34 -16 -46 -27 -42 -38 4 -8 11 -15 18 -16 6 -1 0 -5
-14 -10 -22 -8 -21 -8 9 -5 29 2 31 1 18 -9 -9 -7 -13 -15 -9 -20 4 -4 -32 -4
-80 0 -108 8 -128 3 -128 -36 0 -16 5 -29 12 -29 28 0 -29 -40 -73 -50 -27 -7
-49 -16 -49 -21 0 -5 -11 -9 -24 -9 -14 0 -31 -7 -40 -15 -8 -8 -18 -15 -23
-15 -4 0 -26 -9 -48 -19 -79 -38 -105 -48 -132 -50 -14 -1 -15 -3 -5 -10 8 -4
13 -17 11 -27 -1 -11 1 -27 6 -37 5 -12 1 -24 -10 -37 -15 -16 -21 -47 -24
-127 -1 -15 -6 -21 -15 -17 -9 4 -18 -7 -26 -33 -7 -21 -16 -42 -21 -47 -12
-14 -11 -86 1 -86 6 0 10 -9 10 -20 0 -24 39 -168 52 -193 17 -33 20 -10 3 28
-15 37 -13 58 4 39 22 -23 69 -204 107 -409 2 -11 8 -42 14 -70 6 -27 13 -68
15 -90 5 -39 -40 126 -64 237 l-12 56 -92 6 c-51 4 -150 10 -221 14 l-130 7
-12 49 c-7 27 -14 65 -16 85 -1 20 -9 49 -16 64 -8 16 -12 37 -9 48 3 10 1 16
-4 13 -5 -3 -12 2 -16 11 -7 19 12 35 43 35 11 0 33 14 49 30 33 34 57 37 173
16 51 -9 72 -9 72 -1 0 6 -13 16 -29 22 -23 8 -31 19 -36 46 -13 66 -1 75 25
19 14 -29 31 -52 38 -52 10 0 8 7 -6 28 -10 15 -25 43 -32 62 -7 19 -20 43
-29 54 -27 31 -20 133 13 189 14 26 35 51 46 57 11 6 20 15 20 19 0 13 -43 22
-54 11 -7 -7 -6 -10 3 -10 7 0 10 -4 6 -10 -3 -5 -12 -7 -20 -3 -8 3 -15 0
-15 -6 0 -6 -7 -11 -15 -11 -18 0 -20 -21 -2 -39 10 -10 9 -12 -3 -10 -8 1
-23 -1 -32 -5 -12 -6 -34 2 -67 24 -44 28 -55 31 -95 25 -52 -8 -60 -22 -18
-30 15 -4 35 -10 44 -16 10 -5 24 -9 32 -9 8 0 18 -5 21 -11 7 -10 -51 -5 -85
8 -8 3 -23 5 -34 4 -11 -2 -16 2 -12 8 11 17 -10 13 -44 -8 -27 -16 -29 -19
-13 -25 15 -6 15 -8 3 -16 -8 -6 -23 -10 -32 -10 -9 0 -38 -10 -65 -22 -26
-12 -57 -26 -68 -30 -11 -4 26 -6 82 -4 112 4 149 -9 56 -19 -134 -15 -213
-37 -213 -61 0 -7 -3 -20 -7 -30 -6 -15 -1 -17 45 -11 29 3 52 4 52 2 0 -4
-75 -28 -92 -29 -3 -1 -10 -4 -14 -9 -4 -4 -16 -7 -27 -7 -11 0 -21 -9 -24
-21 -5 -16 -11 -19 -33 -14 -32 7 -44 -11 -34 -51 7 -26 -5 -31 -24 -12 -9 9
-12 9 -12 0 0 -7 4 -12 10 -12 5 0 7 -8 4 -17 -5 -15 -4 -16 5 -3 7 9 11 10
11 3 0 -6 -4 -15 -10 -18 -5 -3 -10 -11 -10 -16 0 -6 5 -7 10 -4 6 4 10 3 9
-2 -3 -20 3 -34 26 -58 41 -40 15 -29 -28 13 -43 41 -43 42 -6 -68 12 -36 25
-67 29 -70 4 -3 13 -32 19 -65 7 -33 15 -72 18 -87 3 -17 10 -25 19 -21 10 4
12 -3 7 -29 -3 -25 0 -39 12 -51 9 -10 16 -29 15 -45 -2 -32 9 -72 20 -72 4 0
11 10 15 23 3 12 9 17 11 10 3 -7 1 -21 -5 -32 -6 -11 -8 -27 -5 -35 3 -9 1
-16 -5 -16 -6 0 -11 -4 -11 -10 0 -19 28 -10 33 10 6 23 27 27 27 5 0 -8 6
-29 14 -47 8 -18 17 -49 21 -69 3 -20 19 -51 39 -72 32 -35 33 -37 15 -53 -11
-10 -19 -21 -19 -26 0 -5 -8 -18 -19 -29 -21 -23 -17 -56 8 -62 9 -2 -1 -5
-21 -8 -25 -3 -38 -1 -38 7 0 6 -7 17 -15 24 -8 7 -15 25 -15 41 0 16 -4 37
-9 47 -27 51 -66 202 -96 377 -19 109 -37 206 -40 215 -5 14 -22 17 -117 19
-61 1 -115 4 -121 8 -5 3 -33 5 -61 5 -28 -1 -64 2 -81 6 -20 6 -3 8 58 8 48
-1 87 -4 87 -7 0 -4 29 -6 64 -5 35 0 62 5 59 10 -3 4 3 6 13 3 11 -3 30 -9
43 -12 18 -6 22 -4 15 6 -6 11 -4 11 10 0 16 -13 17 -12 11 15 -4 16 -22 61
-40 99 -20 40 -41 107 -49 156 -35 191 -18 229 165 354 40 28 103 73 139 102
l67 52 7 71 c6 68 32 154 54 181 74 91 107 117 172 133 l25 6 -25 -13 c-48
-23 -72 -45 -64 -58 5 -8 2 -11 -8 -6 -9 3 -26 -1 -38 -10 -18 -12 -19 -17 -9
-25 11 -8 11 -9 -1 -5 -18 5 -55 -59 -40 -68 6 -4 14 4 18 16 7 19 10 20 15 6
4 -10 2 -17 -3 -17 -6 0 -10 -9 -10 -19 0 -11 -5 -23 -11 -27 -6 -3 -9 -15 -6
-25 3 -11 0 -19 -5 -19 -7 0 -7 -5 1 -13 8 -10 7 -17 -1 -25 -9 -9 -9 -12 0
-12 17 0 68 53 86 89 12 23 35 36 119 69 121 47 127 48 189 38 53 -9 89 -1 82
18 -7 19 33 45 79 53 20 3 37 8 37 12 0 3 3 16 6 29 5 15 2 22 -8 22 -16 0
-28 75 -28 175 0 62 7 72 32 43 14 -16 18 -31 14 -53 -5 -27 7 -67 17 -55 2 3
19 46 37 95 45 121 95 224 117 240 15 12 16 17 6 34 -16 25 -16 31 -2 31 12 0
69 51 69 62 0 5 -8 8 -17 8 -15 0 -14 3 5 18 16 13 19 21 12 28 -6 6 -11 30
-12 53 0 34 -3 39 -14 30 -8 -6 -11 -15 -8 -20 3 -5 0 -9 -5 -9 -6 0 -11 11
-11 25 0 26 0 26 -24 8 -13 -10 -22 -20 -21 -23 2 -3 -9 -7 -25 -8 -20 -2 -30
3 -32 15 -5 25 27 106 43 112 8 2 27 18 42 35 25 27 28 37 24 77 -7 59 8 77
39 48 12 -11 22 -31 22 -44z m32 0 c0 -8 -4 -15 -10 -15 -5 0 -7 7 -4 15 4 8
8 15 10 15 2 0 4 -7 4 -15z m57 -21 c-3 -3 -12 -4 -19 -1 -8 3 -5 6 6 6 11 1
17 -2 13 -5z m-352 -62 c-8 -2 -13 -8 -10 -13 3 -5 -1 -6 -9 -3 -18 7 -22 24
-5 24 5 0 7 5 4 11 -4 6 3 5 14 -3 17 -10 18 -14 6 -16z m415 -102 c0 -5 -9
-10 -19 -10 -11 0 -23 5 -26 10 -4 6 5 10 19 10 14 0 26 -4 26 -10z m-370 -77
c29 50 37 40 10 -12 -25 -49 -53 -54 -74 -13 -8 16 -22 34 -30 41 -9 7 -13 17
-11 22 3 4 23 -11 44 -34 l39 -41 22 37z m-248 -10 c2 -10 -3 -24 -12 -31 -10
-9 -10 -11 -1 -6 9 4 12 3 7 -4 -3 -5 0 -13 6 -15 7 -3 9 -6 3 -6 -5 0 -21 8
-35 18 -24 19 -24 20 -6 40 23 26 33 26 38 4z m55 -75 c-3 -8 -6 -5 -6 6 -1
11 2 17 5 13 3 -3 4 -12 1 -19z m42 -51 c-11 -42 -35 -52 -25 -11 6 23 27 55
33 50 1 -1 -2 -19 -8 -39z m134 -2 c7 -48 -7 -100 -23 -90 -16 10 -13 135 4
135 8 0 16 -17 19 -45z m-4279 14 c5 -4 6 -15 3 -23 -5 -12 -20 -16 -58 -16
-41 0 -49 3 -41 13 8 10 6 13 -9 13 -10 0 -19 -6 -19 -13 0 -9 -15 -13 -45
-13 -36 0 -45 4 -46 18 0 14 -2 14 -9 -3 -7 -17 -9 -17 -9 -2 -1 9 -5 17 -10
17 -5 0 -11 -8 -13 -17 -3 -13 -6 -10 -10 9 l-5 27 90 0 c49 0 92 2 94 5 7 6
76 -5 87 -15z m4083 -1 c-3 -8 -6 -5 -6 6 -1 11 2 17 5 13 3 -3 4 -12 1 -19z
m-4327 -58 c0 -6 9 -6 26 0 14 6 30 7 36 4 6 -4 24 -7 39 -6 29 1 56 -28 44
-48 -5 -9 -139 -9 -149 0 -11 12 -18 60 -7 60 6 0 11 -4 11 -10z m-389 -100
c25 -14 24 -25 -3 -27 -18 -2 -20 0 -8 7 14 9 7 14 -12 11 -5 0 -8 4 -8 9 0
13 6 13 31 0z m3429 -229 c0 -4 -16 -11 -36 -14 -20 -3 -46 -17 -59 -31 -23
-25 -85 -43 -180 -51 -27 -2 -88 -9 -135 -14 -82 -10 -186 -13 -145 -4 11 2
27 7 35 10 19 8 27 9 125 23 109 16 179 34 250 64 58 25 145 35 145 17z m34 3
c20 -8 21 -20 2 -27 -8 -3 -16 2 -19 14 -6 21 -5 22 17 13z m2561 -100 c19
-45 19 -64 1 -64 -15 0 -26 30 -26 73 0 37 7 34 25 -9z m-2588 -44 c68 -24 73
-24 73 -6 0 7 11 16 24 18 51 10 56 -58 31 -387 -13 -161 -20 -208 -37 -242
-11 -24 -24 -40 -29 -38 -4 3 -13 -4 -20 -16 -6 -13 -14 -17 -18 -11 -4 7 -14
5 -31 -5 -14 -8 -17 -12 -7 -9 11 4 16 2 12 -5 -4 -6 -19 -10 -33 -9 -42 3
-49 1 -67 -16 -9 -9 -18 -14 -22 -11 -3 3 0 57 6 119 16 165 15 177 -9 171
-28 -7 -30 -12 -35 -90 -3 -37 -10 -95 -15 -128 -6 -33 -10 -64 -10 -70 0 -5
-5 -2 -11 8 -10 17 -12 16 -36 -3 -14 -11 -27 -19 -29 -18 -1 2 2 23 6 48 12
62 12 148 0 155 -13 8 -9 36 9 54 11 12 11 16 -1 25 -8 6 -23 26 -33 43 -18
30 -18 38 -6 110 31 185 124 333 209 333 12 0 48 -9 79 -20z m1373 -6 c-51 -7
-340 -9 -318 -3 13 4 95 7 183 7 88 -1 149 -2 135 -4z m-2320 -59 c-6 -8 -9
-18 -6 -23 3 -6 0 -15 -7 -20 -10 -9 -12 -3 -9 26 3 20 10 40 16 44 16 10 20
-10 6 -27z m600 -10 c0 -12 -12 -15 -52 -13 -44 1 -46 2 -15 5 20 2 37 8 37
14 0 5 7 9 15 9 8 0 15 -7 15 -15z m2513 -37 c-49 -54 -93 -125 -87 -142 4
-10 1 -16 -7 -16 -10 0 -10 -3 -3 -8 8 -5 7 -25 -3 -72 -13 -60 -17 -93 -21
-162 -2 -36 -18 -35 -37 2 -20 38 -19 61 5 156 22 85 50 146 83 182 l20 22
-24 2 c-13 1 -32 2 -41 3 -9 0 -20 3 -23 7 -7 7 11 13 69 23 22 4 49 13 60 21
36 25 41 15 9 -18z m-2990 -15 c-7 -2 -19 -2 -25 0 -7 3 -2 5 12 5 14 0 19 -2
13 -5z m-57 -38 c-22 -17 -36 -19 -36 -7 0 14 12 22 34 22 21 -1 21 -1 2 -15z
m559 5 c16 -7 14 -9 -15 -9 -19 0 -42 4 -50 9 -11 7 -8 10 15 9 17 0 39 -4 50
-9z m-28 -62 c-3 -8 -6 -5 -6 6 -1 11 2 17 5 13 3 -3 4 -12 1 -19z m-617 -82
c0 -17 -7 -26 -25 -30 -32 -8 -45 -1 -45 24 0 13 9 20 28 23 15 2 30 5 35 6 4
0 7 -10 7 -23z m3817 -8 c-3 -7 -5 -2 -5 12 0 14 2 19 5 13 2 -7 2 -19 0 -25z
m-1 -87 c-4 -20 -1 -43 4 -51 9 -13 10 -12 8 4 -2 14 5 21 24 27 15 4 35 15
44 24 12 11 19 13 24 5 4 -6 14 -8 23 -4 21 8 74 -13 81 -32 9 -23 54 -17 62
8 6 21 7 21 21 -5 8 -15 11 -31 8 -36 -3 -5 1 -22 9 -38 24 -46 54 -115 70
-161 9 -24 31 -62 49 -85 31 -38 66 -125 82 -203 3 -16 -1 -70 -10 -120 -17
-94 -22 -211 -10 -263 6 -27 3 -32 -19 -41 -24 -9 -26 -15 -26 -66 l0 -56 -37
50 c-21 28 -42 58 -48 66 -7 12 -35 17 -110 21 -147 7 -239 16 -246 24 -3 3
-25 93 -48 198 -46 207 -46 206 -16 393 8 47 19 128 25 180 6 52 13 104 15
115 2 11 4 37 4 58 1 24 5 36 12 32 6 -4 8 -22 5 -44z m259 9 c3 -5 1 -10 -4
-10 -6 0 -11 5 -11 10 0 6 2 10 4 10 3 0 8 -4 11 -10z m-4430 -231 c-4 -6 3
-9 21 -7 15 2 29 -2 31 -9 3 -8 -3 -11 -17 -8 -25 5 -50 -3 -50 -16 0 -5 7 -9
15 -9 18 0 20 -17 3 -23 -21 -7 -38 4 -38 23 0 11 -5 22 -12 26 -7 4 -8 3 -4
-4 4 -7 2 -12 -3 -12 -6 0 -11 -5 -11 -11 0 -5 5 -7 12 -3 6 4 8 3 5 -3 -3 -5
-16 -9 -29 -7 -13 1 -26 3 -30 3 -22 3 -3 30 30 44 67 28 87 33 77 16z m1009
-51 c10 -88 10 -88 -26 -81 -47 8 -53 18 -29 45 l22 23 -23 7 -23 6 25 2 c18
2 20 4 8 7 -10 2 -18 8 -18 11 0 7 35 28 51 31 3 0 9 -23 13 -51z m-2070 -35
c13 -45 36 -176 32 -180 -10 -10 -76 39 -81 60 -8 35 -1 121 10 129 17 13 33
9 39 -9z m3161 -53 c-27 -12 -43 -12 -25 0 8 5 22 9 30 9 10 0 8 -3 -5 -9z
m68 3 c-7 -2 -19 -2 -25 0 -7 3 -2 5 12 5 14 0 19 -2 13 -5z m-1947 -29 l82
-7 6 -111 c3 -61 9 -142 12 -181 l6 -70 -143 5 c-134 5 -144 6 -147 25 -2 11
-17 47 -32 80 -16 33 -40 106 -53 163 l-24 102 106 0 c58 0 143 -3 187 -6z
m1914 -88 c0 -2 -8 -10 -17 -17 -11 -9 -14 -10 -9 -2 5 9 2 11 -9 6 -13 -4
-14 -8 -4 -14 8 -4 10 -11 7 -14 -4 -4 -16 0 -28 8 -21 14 -21 16 -3 26 17 10
63 15 63 7z m10 -43 c0 -5 -4 -15 -10 -23 -11 -18 -25 -7 -17 15 6 15 27 21
27 8z m1924 -211 c21 -92 41 -178 44 -191 5 -23 4 -23 -54 -17 -33 3 -169 10
-304 17 -135 6 -254 14 -265 18 -19 8 -20 16 -17 163 l3 155 222 10 c122 5
247 10 277 11 l55 2 39 -168z m-807 152 c30 -6 30 -6 37 -92 3 -48 9 -118 13
-155 l6 -68 -39 3 c-36 3 -39 5 -42 37 -2 19 -9 43 -17 55 -7 12 -16 57 -19
101 -4 44 -10 90 -13 103 -4 18 -1 22 20 22 13 0 38 -3 54 -6z m148 -169 c0
-143 -1 -150 -20 -150 -22 0 -28 33 -38 218 l-5 88 32 -3 31 -3 0 -150z
m-4905 125 c-16 -11 -40 -13 -40 -5 0 8 44 24 50 18 2 -2 -2 -8 -10 -13z
m-1293 -55 c2 -11 0 -14 -3 -7 -3 6 -12 12 -20 12 -8 0 -14 5 -14 11 0 19 35
4 37 -16z m1263 16 c0 -5 -11 -11 -25 -13 -20 -4 -23 -3 -14 8 13 16 39 19 39
5z m3415 -21 c3 -5 2 -10 -4 -10 -5 0 -13 5 -16 10 -3 6 -2 10 4 10 5 0 13 -4
16 -10z m-4562 -34 c4 -11 -1 -14 -21 -11 -15 2 -37 4 -50 4 -39 1 -13 21 28
21 23 0 40 -5 43 -14z m2391 -1 c3 -8 1 -15 -4 -15 -6 0 -10 7 -10 15 0 8 2
15 4 15 2 0 6 -7 10 -15z m-1187 -27 c-3 -7 -5 -2 -5 12 0 14 2 19 5 13 2 -7
2 -19 0 -25z m-957 -28 c0 -5 -4 -10 -9 -10 -6 0 -13 5 -16 10 -3 6 1 10 9 10
9 0 16 -4 16 -10z m4197 -6 c-3 -3 -12 -4 -19 -1 -8 3 -5 6 6 6 11 1 17 -2 13
-5z m-419 -11 c-10 -2 -28 -2 -40 0 -13 2 -5 4 17 4 22 1 32 -1 23 -4z m-3853
-51 c-3 -4 -10 0 -15 8 -7 10 -10 11 -10 3 0 -7 -7 -13 -15 -13 -26 0 -16 28
13 38 23 7 28 6 30 -10 2 -11 1 -23 -3 -26z m1030 -1 c-15 -25 -85 -51 -132
-50 l-48 1 39 8 c21 4 41 12 45 17 12 19 85 53 94 44 5 -5 6 -14 2 -20z m925
-6 c0 -8 -7 -15 -15 -15 -9 0 -12 6 -9 15 4 8 10 15 15 15 5 0 9 -7 9 -15z
m780 5 c0 -5 -10 -10 -22 -10 -19 0 -20 2 -8 10 19 13 30 13 30 0z m80 -6 c0
-2 -7 -4 -15 -4 -8 0 -15 4 -15 10 0 5 7 7 15 4 8 -4 15 -8 15 -10z m-699 -23
c17 -7 19 -10 7 -10 -10 -1 -18 -5 -18 -10 0 -5 -9 -7 -20 -4 -15 4 -20 0 -20
-13 -1 -18 -1 -18 -11 -1 -7 12 -17 16 -32 12 -15 -4 -18 -3 -9 3 11 7 11 10
-2 15 -9 4 -16 10 -16 15 0 12 87 6 121 -7z m-1071 -15 c0 -3 -4 -8 -10 -11
-5 -3 -10 -1 -10 4 0 6 5 11 10 11 6 0 10 -2 10 -4z m1090 -26 c0 -5 -2 -10
-4 -10 -3 0 -8 5 -11 10 -3 6 -1 10 4 10 6 0 11 -4 11 -10z m-20 -45 c-15 -18
-24 -20 -14 -3 5 8 2 9 -10 5 -10 -4 -15 -3 -11 3 3 6 15 10 27 10 17 0 18 -2
8 -15z m-22 -34 c22 -20 30 -35 25 -47 -5 -14 -15 -16 -67 -10 -33 3 -64 10
-70 16 -5 5 -21 7 -35 6 -14 -2 -20 -1 -13 1 8 3 10 12 7 24 -4 13 -2 19 9 19
9 0 16 -7 16 -15 0 -20 30 -7 31 14 0 10 2 11 6 4 4 -10 10 -10 26 2 28 20 27
20 65 -14z m3132 15 c0 -3 -4 -8 -10 -11 -5 -3 -10 -1 -10 4 0 6 5 11 10 11 6
0 10 -2 10 -4z m-2987 -19 c3 -8 1 -20 -4 -28 -6 -10 -9 -7 -9 14 0 29 5 35
13 14z m3037 3 c0 -5 -4 -10 -9 -10 -6 0 -13 5 -16 10 -3 6 1 10 9 10 9 0 16
-4 16 -10z m-3060 -24 c0 -6 -8 -12 -19 -12 -12 0 -17 6 -14 17 5 19 33 15 33
-5z m4400 -30 c0 -2 -7 -7 -16 -10 -8 -3 -12 -2 -9 4 6 10 25 14 25 6z m-60
-10 c0 -2 -7 -7 -16 -10 -8 -3 -12 -2 -9 4 6 10 25 14 25 6z m-3695 -56 c-6
-18 -9 -20 -16 -9 -7 11 -9 10 -9 -3 0 -10 -4 -18 -10 -18 -15 0 -12 16 5 34
8 8 15 20 15 27 0 10 3 10 11 2 6 -6 8 -21 4 -33z m3640 30 c-11 -5 -29 -9
-40 -9 l-20 0 20 9 c11 5 29 9 40 9 l20 0 -20 -9z m-680 -80 c3 -5 -1 -10 -9
-10 -9 0 -16 5 -16 10 0 6 4 10 9 10 6 0 13 -4 16 -10z m991 -23 c43 -24 59
-39 60 -55 2 -35 -30 -27 -44 11 -7 19 -26 41 -49 54 -60 35 -31 27 33 -10z
m-4309 -56 c27 -24 29 -30 17 -46 -13 -17 -19 -14 -15 8 1 5 -3 6 -8 3 -5 -4
-28 -4 -50 0 -44 7 -53 25 -25 55 19 21 43 15 81 -20z m-2369 -13 c3 -15 -4
-18 -36 -18 -36 0 -40 2 -35 21 4 16 12 19 37 17 20 -2 32 -9 34 -20z m6683
-15 c13 -35 11 -53 -6 -53 -9 0 -15 9 -15 24 0 14 -4 28 -10 31 -5 3 -10 13
-10 20 0 22 30 6 41 -22z m-3725 -41 c-4 -3 -6 1 -6 8 0 8 -7 5 -19 -8 -22
-27 -36 -17 -16 12 8 11 15 30 16 41 0 15 4 11 15 -14 8 -18 13 -36 10 -39z
m2309 38 c9 -16 13 -30 11 -30 -3 0 -12 14 -21 30 -9 17 -13 30 -11 30 3 0 12
-13 21 -30z m-5538 14 c-3 -3 -12 -4 -19 -1 -8 3 -5 6 6 6 11 1 17 -2 13 -5z
m131 -11 c-21 -2 -57 -2 -80 0 -24 2 -7 4 37 4 44 0 63 -2 43 -4z m2859 -16
c6 -4 9 -16 6 -27 -4 -17 -13 -19 -64 -17 -62 2 -69 9 -44 43 12 18 20 20 53
14 21 -4 43 -10 49 -13z m43 -27 c0 -5 -2 -10 -4 -10 -3 0 -8 5 -11 10 -3 6
-1 10 4 10 6 0 11 -4 11 -10z m2617 -48 c21 5 57 11 80 12 24 2 49 9 57 15 12
10 16 8 21 -9 4 -12 2 -27 -5 -35 -9 -10 -6 -15 12 -20 79 -22 93 -40 65 -80
-18 -24 -64 -13 -77 18 -7 17 -9 18 -9 5 -1 -10 -5 -18 -11 -18 -5 0 -10 -4
-10 -10 0 -5 9 -10 20 -10 31 0 37 -30 11 -51 -17 -14 -28 -16 -46 -9 -38 14
-76 -36 -43 -56 8 -5 9 -2 5 9 -3 10 -2 17 2 17 5 0 11 -6 14 -14 6 -15 -11
-36 -29 -36 -19 0 -22 -24 -5 -37 21 -15 12 -22 -32 -25 -37 -3 -46 -11 -27
-23 22 -13 8 -24 -45 -35 -30 -6 -61 -18 -67 -25 -7 -8 -19 -21 -26 -30 -13
-16 -107 -21 -128 -7 -15 10 -22 76 -9 89 9 9 53 64 125 156 14 18 43 69 64
113 l39 82 -23 33 -23 34 31 -32 c29 -29 34 -30 69 -21z m-4757 17 c0 -5 -7
-9 -15 -9 -8 0 -15 -4 -15 -10 0 -17 -29 -11 -39 9 -6 10 -8 20 -6 23 8 8 75
-4 75 -13z m1900 -8 c0 -5 -7 -14 -15 -21 -9 -7 -13 -15 -11 -18 9 -8 -14 -43
-24 -37 -5 3 -16 -7 -24 -22 -8 -15 -26 -39 -40 -53 -15 -14 -37 -36 -51 -50
-14 -14 -29 -25 -33 -25 -4 0 -20 -9 -35 -19 -15 -10 -31 -16 -34 -12 -4 4 3
9 15 13 12 3 22 9 22 14 0 5 -13 3 -30 -6 -35 -18 -39 -11 -7 15 12 11 31 17
42 15 11 -3 15 -2 8 1 -7 3 30 47 92 110 97 96 125 118 125 95z m371 -14 c-10
-9 -11 -8 -5 6 3 10 9 15 12 12 3 -3 0 -11 -7 -18z m-894 -43 c-3 -3 -12 -4
-19 -1 -8 3 -5 6 6 6 11 1 17 -2 13 -5z m58 -168 c19 -8 35 -19 35 -25 0 -5
12 -12 28 -14 20 -3 17 -4 -13 -5 -47 -2 -88 16 -93 41 -4 21 -1 21 43 3z
m2571 -72 c49 -17 91 -44 66 -44 -19 0 -14 -20 6 -21 14 0 14 -2 -3 -8 -15 -6
-21 -20 -25 -57 -4 -38 -10 -51 -27 -59 -25 -11 -39 -53 -24 -68 16 -16 13
-37 -4 -31 -11 5 -14 -1 -11 -24 1 -16 7 -35 11 -42 10 -17 -71 -90 -100 -90
-12 0 -56 -3 -98 -6 -67 -6 -77 -5 -77 10 0 9 9 25 19 35 37 37 53 70 47 95
-4 17 1 31 19 50 13 14 28 26 33 26 5 0 12 16 15 36 3 20 14 45 23 55 9 10 18
29 19 41 0 13 7 44 15 71 16 53 22 55 96 31z m-2112 -38 c47 -7 54 -25 10 -28
-42 -3 -74 12 -74 35 0 13 3 17 8 11 4 -6 29 -14 56 -18z m3019 -157 c26 -6
46 -13 44 -15 -6 -7 -111 18 -122 29 -6 6 -3 7 10 4 11 -4 42 -11 68 -18z
m-3926 -5 c-3 -3 -12 -4 -19 -1 -8 3 -5 6 6 6 11 1 17 -2 13 -5z m4010 -20
c-3 -3 -12 -4 -19 -1 -8 3 -5 6 6 6 11 1 17 -2 13 -5z m96 -19 c20 -4 40 -11
43 -16 8 -13 -4 -11 -71 11 -58 19 -55 20 28 5z m-1590 -172 c-7 -2 -21 -2
-30 0 -10 3 -4 5 12 5 17 0 24 -2 18 -5z m-403 -53 c11 -7 4 -10 -27 -10 -24
0 -43 5 -43 10 0 13 50 13 70 0z m-2337 -117 c-7 -2 -19 -2 -25 0 -7 3 -2 5
12 5 14 0 19 -2 13 -5z"/>
<path d="M4280 6450 l-65 -46 -3 -86 -3 -87 65 -36 65 -36 48 32 c92 62 93 63
93 154 l0 81 -68 35 -67 35 -65 -46z m110 -40 c39 -20 40 -22 40 -74 0 -51 -2
-54 -42 -83 l-43 -30 -42 20 c-43 21 -43 21 -43 76 0 53 3 58 38 83 45 33 43
33 92 8z"/>
<path d="M5213 6425 c0 -33 1 -52 4 -42 6 21 12 21 35 0 20 -18 25 -4 6 15
-10 10 -10 17 1 35 13 21 13 22 -6 5 -27 -25 -31 -23 -36 15 -2 17 -4 5 -4
-28z"/>
<path d="M5023 6405 c0 -33 2 -45 4 -27 2 18 2 45 0 60 -2 15 -4 0 -4 -33z"/>
<path d="M5140 6430 c0 -5 5 -10 10 -10 6 0 10 -14 10 -32 0 -34 12 -31 17 4
3 21 -12 48 -28 48 -5 0 -9 -4 -9 -10z"/>
<path d="M4703 6370 c0 -47 1 -56 6 -30 8 48 38 53 44 8 l4 -33 1 38 c2 33 -1
37 -22 37 -18 0 -26 7 -29 23 -2 12 -4 -7 -4 -43z"/>
<path d="M5073 6390 c0 -25 2 -35 4 -22 2 12 2 32 0 45 -2 12 -4 2 -4 -23z"/>
<path d="M5110 6388 c0 -49 5 -47 13 5 3 20 2 37 -4 37 -5 0 -9 -19 -9 -42z"/>
<path d="M4590 6400 c-42 -42 -7 -113 47 -94 14 5 29 16 31 24 4 12 1 11 -15
-2 -27 -25 -51 -22 -65 7 -21 46 36 97 71 63 10 -11 11 -10 6 5 -9 23 -50 22
-75 -3z"/>
<path d="M4967 6409 c6 -8 13 -27 16 -44 4 -23 4 -20 3 9 -1 25 -6 41 -16 44
-12 4 -13 2 -3 -9z"/>
<path d="M4883 6370 c0 -25 2 -35 4 -22 2 12 2 32 0 45 -2 12 -4 2 -4 -23z"/>
<path d="M4927 6388 c-3 -12 -2 -28 2 -36 6 -11 10 -4 13 22 4 39 -6 49 -15
14z"/>
<path d="M4830 6391 c12 -9 13 -12 1 -20 -11 -7 -11 -9 0 -13 16 -5 3 -28 -18
-28 -10 0 -13 6 -9 16 3 8 2 12 -4 9 -6 -3 -10 -13 -10 -21 0 -15 27 -19 48
-5 18 11 11 63 -8 68 -13 4 -13 3 0 -6z"/>
<path d="M3645 6366 l-90 -11 -1 -108 0 -109 90 7 c50 4 94 9 99 12 4 2 7 53
7 114 0 60 -3 108 -7 108 -5 -1 -48 -7 -98 -13z m63 -46 c33 -31 30 -84 -7
-121 -55 -54 -121 -26 -121 51 0 76 77 117 128 70z"/>
<path d="M3265 6325 c-5 -2 -45 -6 -87 -10 l-78 -7 0 -110 c0 -99 2 -109 18
-104 9 2 52 7 95 11 l77 7 0 34 c0 38 -22 47 -40 15 -20 -39 -83 -44 -112 -9
-37 42 -26 50 95 63 l57 6 0 55 c0 52 -3 57 -25 49z m-21 -51 c31 -30 21 -37
-71 -47 -52 -6 -63 7 -32 39 26 28 79 32 103 8z"/>
<path d="M3320 6224 l0 -107 77 7 c42 3 86 6 98 6 18 0 24 7 27 30 7 48 -6 56
-37 21 -20 -22 -37 -31 -60 -31 -56 0 -69 19 -73 104 -3 56 -8 76 -18 76 -11
0 -14 -22 -14 -106z"/>
<path d="M2938 6291 c-26 -4 -50 -10 -54 -14 -7 -6 -8 -68 -5 -175 1 -31 2
-32 39 -27 20 2 63 7 95 10 55 6 57 8 57 35 0 40 -18 47 -46 17 -34 -37 -61
-43 -93 -20 -20 15 -27 30 -29 63 -6 77 62 116 121 70 34 -27 37 -26 37 15 0
34 -1 35 -37 34 -21 -1 -59 -5 -85 -8z"/>
<path d="M5007 5823 c-11 -11 -8 -153 3 -153 6 0 10 33 10 80 0 80 -1 86 -13
73z"/>
<path d="M5275 5800 c-4 -6 5 -10 19 -10 36 0 33 -26 -3 -33 -34 -7 -48 -35
-27 -55 9 -10 24 -12 45 -7 29 6 31 10 31 49 0 23 -5 47 -12 54 -15 15 -45 16
-53 2z m43 -76 c-9 -10 -24 -14 -33 -10 -23 9 -9 26 23 26 24 0 25 -1 10 -16z"/>
<path d="M5215 5790 c-3 -5 -13 -6 -22 -3 -13 5 -15 2 -10 -11 4 -10 8 -36 8
-59 l2 -42 7 44 c4 24 14 49 23 56 10 7 17 15 17 19 0 9 -18 7 -25 -4z"/>
<path d="M5072 5770 c-24 -23 -29 -59 -10 -78 20 -20 65 -14 82 10 21 30 20
44 -4 68 -25 25 -41 25 -68 0z m63 -19 c11 -36 -17 -67 -50 -55 -18 7 -20 60
-2 67 26 11 46 6 52 -12z"/>
<path d="M4919 5761 c34 -9 37 -29 6 -37 -59 -15 -51 -71 9 -60 32 6 36 10 36
37 0 46 -17 69 -48 68 -27 -1 -27 -1 -3 -8z m29 -63 c-5 -15 -48 -24 -48 -10
0 14 12 22 33 22 10 0 17 -5 15 -12z"/>
<path d="M4832 5724 c-26 -31 -31 -34 -36 -18 -6 21 -46 50 -46 35 0 -6 5 -13
10 -16 6 -3 19 -23 29 -43 l18 -36 18 35 c10 18 24 42 33 52 8 9 13 20 10 23
-3 3 -19 -11 -36 -32z"/>
<path d="M3685 5740 c-3 -5 -2 -10 4 -10 5 0 13 5 16 10 3 6 2 10 -4 10 -5 0
-13 -4 -16 -10z"/>
<path d="M4320 5725 c0 -8 -8 -15 -18 -15 -42 0 -55 -42 -19 -61 21 -12 22
-11 4 8 -15 18 -16 22 -3 32 20 16 39 4 33 -20 -3 -11 -1 -19 4 -19 5 0 9 20
9 45 0 25 -2 45 -5 45 -3 0 -5 -7 -5 -15z"/>
<path d="M4363 5713 c-7 -3 -12 -19 -12 -36 2 -28 2 -29 6 -7 3 14 10 28 16
32 14 9 6 17 -10 11z"/>
<path d="M4407 5713 c-4 -3 -7 -17 -7 -30 0 -19 5 -23 29 -23 34 0 45 12 36
40 -6 19 -44 28 -58 13z m43 -23 c0 -13 -7 -20 -20 -20 -13 0 -20 7 -20 20 0
13 7 20 20 20 13 0 20 -7 20 -20z"/>
<path d="M3786 5697 c3 -10 9 -15 12 -12 3 3 0 11 -7 18 -10 9 -11 8 -5 -6z"/>
<path d="M4013 5665 c0 -27 2 -38 4 -22 2 15 2 37 0 50 -2 12 -4 0 -4 -28z"/>
<path d="M4111 5668 c1 -24 4 -34 6 -23 3 11 9 25 13 30 4 6 2 16 -6 23 -12
11 -14 6 -13 -30z"/>
<path d="M3615 5690 c-4 -6 3 -10 14 -10 25 0 27 6 6 13 -8 4 -17 2 -20 -3z"/>
<path d="M3867 5693 c-4 -3 -7 -25 -6 -47 0 -32 2 -36 9 -21 4 11 6 31 3 44
-5 21 -3 23 21 19 14 -3 26 -1 26 3 0 10 -44 12 -53 2z"/>
<path d="M4192 5683 c-14 -27 -3 -43 26 -42 24 2 24 2 5 6 -15 3 -23 12 -23
24 0 21 26 26 33 7 2 -7 8 -10 12 -6 11 11 -4 28 -25 28 -11 0 -23 -8 -28 -17z"/>
<path d="M4085 5679 c-4 -6 -5 -12 -2 -15 2 -3 7 2 10 11 7 17 1 20 -8 4z"/>
<path d="M4159 5658 c4 -28 6 -29 9 -9 2 13 0 27 -5 32 -6 6 -7 -3 -4 -23z"/>
<path d="M3210 5667 c-17 -9 -26 -22 -27 -42 l-2 -30 10 33 c6 21 16 32 29 32
14 0 20 -9 23 -32 3 -29 4 -27 5 10 2 46 -1 48 -38 29z"/>
<path d="M3287 5673 c-4 -3 -7 -15 -7 -26 0 -15 5 -18 25 -15 16 4 25 1 25 -8
0 -7 -12 -15 -27 -17 -27 -4 -27 -4 3 -6 21 0 34 5 38 15 8 22 -2 36 -24 32
-27 -4 -25 16 2 24 22 6 22 6 -3 7 -14 1 -29 -2 -32 -6z"/>
<path d="M3941 5666 c-16 -20 -3 -46 24 -46 24 0 42 30 30 50 -9 14 -41 12
-54 -4z m45 -7 c9 -15 -11 -33 -30 -26 -9 4 -13 13 -10 22 7 17 30 20 40 4z"/>
<path d="M4050 5654 c6 -15 9 -33 6 -41 -3 -7 -1 -13 4 -13 6 0 10 4 10 9 0 5
3 17 7 27 4 12 3 15 -5 10 -7 -4 -12 -1 -12 8 0 8 -4 18 -10 21 -6 4 -6 -4 0
-21z"/>
<path d="M3105 5654 c-9 -9 -15 -28 -13 -43 2 -21 9 -27 36 -29 17 -2 32 1 32
5 0 5 -10 9 -22 8 -33 0 -38 19 -5 23 21 3 27 9 27 28 0 29 -30 33 -55 8z m43
-12 c2 -7 -6 -12 -17 -12 -21 0 -27 11 -14 24 9 9 26 2 31 -12z"/>
<path d="M2987 5642 c-24 -27 -21 -36 4 -11 11 11 19 23 16 25 -2 2 -11 -4
-20 -14z"/>
<path d="M3755 5640 c-3 -5 -1 -10 4 -10 6 0 11 5 11 10 0 6 -2 10 -4 10 -3 0
-8 -4 -11 -10z"/>
<path d="M2822 5555 c0 -70 1 -73 12 -22 9 41 43 37 49 -5 3 -30 4 -29 5 8 2
39 1 40 -27 36 -26 -4 -30 -1 -34 24 -2 16 -4 -2 -5 -41z"/>
<path d="M3000 5614 c0 -6 5 -15 11 -21 8 -8 7 -17 -2 -34 l-12 -24 22 20 c22
19 23 19 37 0 12 -15 14 -16 14 -3 0 9 -6 18 -12 21 -10 4 -10 7 0 18 6 7 12
17 12 23 0 5 -6 1 -14 -9 -14 -19 -15 -19 -35 -1 -12 11 -21 15 -21 10z"/>
<path d="M3784 5590 c0 -13 4 -16 10 -10 7 7 7 13 0 20 -6 6 -10 3 -10 -10z"/>
<path d="M3655 5580 c-19 -8 -19 -9 2 -9 12 -1 25 4 28 9 7 12 -2 12 -30 0z"/>
<path d="M2922 5568 c-7 -7 -12 -20 -12 -29 0 -27 64 -10 68 19 3 17 -2 22
-20 22 -13 0 -29 -5 -36 -12z m48 -7 c0 -10 -30 -24 -37 -17 -3 3 -2 9 2 15 8
13 35 15 35 2z"/>
<path d="M3615 5570 c3 -5 8 -10 11 -10 2 0 4 5 4 10 0 6 -5 10 -11 10 -5 0
-7 -4 -4 -10z"/>
<path d="M3082 5530 c-7 -11 -8 -20 -2 -20 5 0 14 9 20 20 6 11 7 20 3 20 -5
0 -14 -9 -21 -20z"/>
<path d="M3690 5530 c0 -5 5 -10 11 -10 5 0 7 5 4 10 -3 6 -8 10 -11 10 -2 0
-4 -4 -4 -10z"/>
<path d="M2928 5503 c12 -2 30 -2 40 0 9 3 -1 5 -23 4 -22 0 -30 -2 -17 -4z"/>
<path d="M4742 5194 c-16 -11 -22 -25 -21 -52 1 -29 2 -32 7 -15 10 32 39 63
59 63 15 0 16 2 3 10 -20 13 -22 13 -48 -6z"/>
<path d="M5083 5203 c-15 -6 -17 -59 -3 -68 15 -9 47 3 54 21 13 33 -18 61
-51 47z m37 -19 c11 -12 11 -18 -2 -31 -19 -18 -38 -10 -38 16 0 33 20 40 40
15z"/>
<path d="M5218 5175 c2 -19 6 -35 8 -35 2 0 4 16 4 35 0 19 -4 35 -8 35 -4 0
-6 -16 -4 -35z"/>
<path d="M5242 5190 c0 -14 2 -19 5 -12 2 6 2 18 0 25 -3 6 -5 1 -5 -13z"/>
<path d="M5344 5195 c-3 -8 -4 -20 -2 -27 3 -7 7 -1 10 15 6 29 1 36 -8 12z"/>
<path d="M4962 5175 c0 -16 2 -22 5 -12 2 9 2 23 0 30 -3 6 -5 -1 -5 -18z"/>
<path d="M5308 5175 c-3 -14 -1 -25 3 -25 5 0 9 11 9 25 0 14 -2 25 -4 25 -2
0 -6 -11 -8 -25z"/>
<path d="M4890 5175 c-15 -18 -4 -55 16 -55 13 0 13 2 0 16 -19 19 -20 26 -4
42 7 7 9 12 6 12 -3 0 -11 -7 -18 -15z"/>
<path d="M5025 5168 c6 -22 4 -28 -10 -28 -13 0 -16 6 -12 21 4 16 3 19 -5 11
-15 -15 -1 -44 19 -40 21 4 29 36 13 52 -9 8 -10 4 -5 -16z"/>
<path d="M5150 5164 c0 -21 4 -25 23 -22 15 2 22 10 23 26 1 18 1 19 -3 2 -2
-11 -11 -20 -20 -20 -10 0 -14 6 -10 20 3 11 1 20 -4 20 -5 0 -9 -12 -9 -26z"/>
<path d="M4050 5155 c0 -14 2 -25 4 -25 2 0 6 11 8 25 3 14 1 25 -3 25 -5 0
-9 -11 -9 -25z"/>
<path d="M4810 5162 c0 -19 -33 -55 -60 -65 -9 -3 -4 -6 12 -6 41 -1 87 66 58
84 -5 3 -10 -2 -10 -13z"/>
<path d="M5274 5169 c-3 -6 -1 -16 4 -21 8 -8 11 -5 9 11 -1 24 -3 25 -13 10z"/>
<path d="M3910 5145 c0 -14 4 -25 9 -25 5 0 8 8 7 18 -2 9 2 20 8 24 7 5 4 8
-6 8 -13 0 -18 -8 -18 -25z"/>
<path d="M3960 5160 c0 -5 7 -7 15 -4 8 4 15 8 15 10 0 2 -7 4 -15 4 -8 0 -15
-4 -15 -10z"/>
<path d="M3808 5153 c7 -3 16 -2 19 1 4 3 -2 6 -13 5 -11 0 -14 -3 -6 -6z"/>
<path d="M3861 5149 c-1 -26 25 -31 27 -6 1 16 -1 18 -7 8 -7 -11 -9 -11 -14
0 -4 10 -6 10 -6 -2z"/>
<path d="M4930 5145 c0 -8 5 -15 10 -15 6 0 10 7 10 15 0 8 -4 15 -10 15 -5 0
-10 -7 -10 -15z"/>
<path d="M4171 5074 c0 -11 3 -14 6 -6 3 7 2 16 -1 19 -3 4 -6 -2 -5 -13z"/>
<path d="M4215 5069 c-4 -6 -5 -12 -2 -15 2 -3 7 2 10 11 7 17 1 20 -8 4z"/>
<path d="M3072 5025 c0 -16 2 -22 5 -12 2 9 2 23 0 30 -3 6 -5 -1 -5 -18z"/>
<path d="M3150 5039 c0 -5 5 -7 10 -4 6 3 10 8 10 11 0 2 -4 4 -10 4 -5 0 -10
-5 -10 -11z"/>
<path d="M3226 5041 c-4 -5 3 -7 13 -4 13 3 21 -1 24 -14 4 -15 5 -14 6 5 1
16 -5 22 -18 22 -11 0 -22 -4 -25 -9z"/>
<path d="M4901 4812 c-7 -13 -4 -24 10 -42 18 -22 19 -22 10 -3 -14 27 -14 46
-1 38 6 -3 10 -2 10 4 0 19 -19 21 -29 3z"/>
<path d="M4986 4824 c13 -6 7 -44 -7 -44 -5 0 -9 -5 -9 -11 0 -9 37 -4 49 7
11 9 -11 54 -27 53 -9 0 -12 -3 -6 -5z"/>
<path d="M5011 4713 c-2 -43 26 -72 43 -44 3 5 -2 8 -11 7 -12 -1 -20 9 -24
29 -5 22 -7 24 -8 8z"/>
<path d="M5137 4723 c-12 -12 -7 -22 8 -17 10 4 15 0 15 -15 0 -25 15 -28 24
-5 12 30 6 44 -17 44 -13 0 -27 -3 -30 -7z"/>
<path d="M4004 4689 c-3 -6 -2 -15 3 -20 5 -5 9 -1 9 11 0 23 -2 24 -12 9z"/>
<path d="M3284 4666 c-3 -8 -4 -23 -2 -33 3 -11 6 -6 9 15 6 34 2 42 -7 18z"/>
<path d="M4900 4670 c0 -15 21 -23 32 -12 6 6 2 11 -11 15 -12 3 -21 1 -21 -3z"/>
<path d="M2886 4651 c-4 -7 -5 -15 -2 -18 9 -9 19 4 14 18 -4 11 -6 11 -12 0z"/>
<path d="M3021 4634 c0 -11 3 -14 6 -6 3 7 2 16 -1 19 -3 4 -6 -2 -5 -13z"/>
<path d="M3080 4630 c0 -11 2 -20 4 -20 2 0 6 9 9 20 3 11 1 20 -4 20 -5 0 -9
-9 -9 -20z"/>
<path d="M3241 4634 c0 -11 3 -14 6 -6 3 7 2 16 -1 19 -3 4 -6 -2 -5 -13z"/>
<path d="M3331 4634 c0 -11 3 -14 6 -6 3 7 2 16 -1 19 -3 4 -6 -2 -5 -13z"/>
<path d="M2870 4609 c0 -5 5 -7 10 -4 6 3 10 8 10 11 0 2 -4 4 -10 4 -5 0 -10
-5 -10 -11z"/>
<path d="M1230 4174 c0 -10 33 -33 48 -34 21 0 13 27 -10 34 -30 7 -38 7 -38
0z"/>
<path d="M1118 4138 c5 -5 16 -8 23 -6 8 3 3 7 -10 11 -17 4 -21 3 -13 -5z"/>
<path d="M1070 4102 c-27 -13 -31 -18 -16 -20 10 -2 21 0 25 6 3 5 24 14 46
20 37 9 38 10 10 11 -16 0 -46 -7 -65 -17z"/>
<path d="M845 4030 c-3 -5 1 -10 9 -10 9 0 16 -6 16 -14 0 -7 7 -19 15 -26 13
-10 15 -9 15 12 0 38 -39 65 -55 38z"/>
<path d="M1180 4010 c-21 -7 -19 -8 16 -9 27 -1 44 -6 48 -16 6 -15 56 -22 56
-7 0 9 -71 43 -86 41 -5 -1 -20 -5 -34 -9z"/>
<path d="M1195 3970 c-18 -19 -18 -20 3 -20 24 0 38 18 25 31 -6 6 -16 2 -28
-11z"/>
<path d="M1145 3939 c-11 -16 0 -21 30 -13 20 5 23 9 13 15 -18 12 -36 11 -43
-2z"/>
<path d="M1050 3823 c0 -10 7 -31 15 -47 8 -15 15 -35 15 -42 0 -11 7 -13 28
-8 15 4 28 11 30 15 2 4 9 6 17 3 22 -9 115 45 115 66 0 8 -67 19 -157 26 -55
4 -63 2 -63 -13z"/>
<path d="M6085 4020 c-10 -11 -16 -22 -14 -24 2 -2 12 7 22 20 22 29 17 32 -8
4z"/>
<path d="M6896 3839 c-21 -20 -9 -25 27 -10 16 6 16 9 5 18 -10 8 -18 6 -32
-8z"/>
<path d="M6342 3792 c-28 -26 -52 -55 -52 -65 0 -10 -7 -20 -15 -23 -12 -5
-14 -19 -11 -63 3 -49 0 -59 -22 -83 -31 -34 -21 -50 11 -20 13 12 30 22 39
22 26 0 38 24 31 63 -5 36 -3 40 66 106 81 78 93 111 39 111 -25 -1 -46 -13
-86 -48z m4 -36 c20 -21 17 -28 -6 -14 -11 7 -20 16 -20 20 0 12 10 9 26 -6z"/>
<path d="M6882 3776 c-42 -30 -53 -42 -24 -27 12 7 22 8 22 2 0 -5 -5 -12 -10
-14 -6 -3 -5 -4 2 -3 7 2 12 10 12 19 -1 9 9 18 22 21 13 4 24 11 24 16 0 15
-12 11 -48 -14z"/>
<path d="M6745 3640 c-3 -6 1 -7 9 -4 18 7 21 14 7 14 -6 0 -13 -4 -16 -10z"/>
<path d="M6482 3278 c-16 -16 -15 -39 3 -62 15 -19 15 -19 15 5 0 13 3 34 6
47 7 24 -5 29 -24 10z"/>
<path d="M3555 3670 c-5 -24 -3 -37 9 -49 16 -15 16 -13 10 29 -9 57 -10 59
-19 20z"/>
<path d="M3642 3580 c-15 -25 -15 -30 2 -30 7 0 16 11 18 25 6 30 -3 32 -20 5z"/>
<path d="M3685 3581 c-16 -7 -14 -9 14 -14 19 -4 41 -7 50 -7 13 1 13 3 -3 15
-22 16 -31 17 -61 6z"/>
<path d="M3775 3550 c3 -5 8 -10 11 -10 2 0 4 5 4 10 0 6 -5 10 -11 10 -5 0
-7 -4 -4 -10z"/>
<path d="M3652 3510 c0 -14 2 -19 5 -12 2 6 2 18 0 25 -3 6 -5 1 -5 -13z"/>
<path d="M3690 3450 c0 -5 4 -10 9 -10 6 0 13 5 16 10 3 6 -1 10 -9 10 -9 0
-16 -4 -16 -10z"/>
<path d="M3232 2928 c3 -7 17 -19 31 -26 15 -7 27 -18 27 -25 0 -8 -3 -8 -9 1
-7 11 -9 10 -14 -3 -4 -10 0 -18 11 -22 9 -4 20 -11 25 -17 7 -10 0 63 -9 92
-2 6 -17 12 -35 12 -20 0 -29 -4 -27 -12z"/>
<path d="M3400 2730 c0 -5 5 -10 11 -10 5 0 7 5 4 10 -3 6 -8 10 -11 10 -2 0
-4 -4 -4 -10z"/>
<path d="M5510 3638 c0 -17 2 -18 15 -8 8 7 15 14 15 15 0 2 -7 5 -15 9 -10 4
-15 -1 -15 -16z"/>
<path d="M5880 3350 c0 -5 5 -10 10 -10 6 0 10 5 10 10 0 6 -4 10 -10 10 -5 0
-10 -4 -10 -10z"/>
<path d="M5575 2660 c-3 -5 1 -10 10 -10 9 0 13 5 10 10 -3 6 -8 10 -10 10 -2
0 -7 -4 -10 -10z"/>
<path d="M5393 2596 c17 -13 17 -15 -3 -29 -20 -14 -20 -15 11 -27 18 -8 66
-38 108 -68 124 -89 138 -84 21 8 -60 48 -104 95 -69 75 17 -10 135 -89 168
-112 23 -17 24 -17 11 2 -20 32 -99 90 -177 129 -75 37 -101 46 -70 22z"/>
<path d="M5590 2590 c33 -26 52 -25 21 0 -13 11 -28 20 -35 20 -6 0 0 -9 14
-20z"/>
<path d="M5777 2603 c-4 -7 -5 -24 -1 -38 5 -20 9 -23 20 -14 16 13 19 34 5
24 -5 -3 -11 5 -13 17 -2 15 -6 19 -11 11z"/>
<path d="M5813 2598 c2 -7 10 -12 16 -10 14 3 15 -15 1 -23 -5 -3 -10 -13 -10
-22 0 -14 4 -13 23 5 13 13 48 26 92 33 83 16 63 26 -53 28 -55 1 -73 -2 -69
-11z"/>
<path d="M5500 2570 c23 -17 60 -33 60 -25 0 6 -67 45 -76 45 -5 0 2 -9 16
-20z"/>
<path d="M5270 2537 c72 -40 106 -57 115 -57 5 0 45 -20 89 -45 75 -43 106
-54 106 -37 -1 20 -225 160 -237 148 -4 -3 2 -13 13 -21 19 -15 19 -15 -1 -8
-11 3 -24 9 -30 13 -5 4 -26 11 -45 15 -34 6 -34 6 -10 -8z"/>
<path d="M5580 2545 c0 -6 76 -45 87 -45 4 0 -12 11 -36 25 -44 26 -51 28 -51
20z"/>
<path d="M5225 2510 c-3 -5 -16 -10 -28 -11 -28 -1 70 -31 103 -31 14 0 19 -3
12 -5 -6 -3 -10 -9 -7 -13 3 -5 13 -6 22 -3 10 4 14 2 10 -4 -4 -6 16 -20 48
-33 30 -12 55 -27 55 -32 0 -5 4 -6 10 -3 5 3 18 2 27 -4 14 -8 8 -9 -22 -5
-50 6 -98 21 -144 46 -26 15 -31 15 -16 3 11 -9 46 -30 77 -46 31 -16 59 -33
63 -39 8 -14 21 -13 37 3 7 8 24 20 37 27 23 12 20 14 -70 59 -52 25 -110 58
-130 74 -37 27 -73 35 -84 17z"/>
<path d="M5218 1863 c7 -3 16 -2 19 1 4 3 -2 6 -13 5 -11 0 -14 -3 -6 -6z"/>
<path d="M5266 1861 c-4 -5 3 -7 14 -4 23 6 26 13 6 13 -8 0 -17 -4 -20 -9z"/>
<path d="M5477 1806 c-7 -19 1 -46 14 -46 11 0 11 31 0 48 -7 11 -9 11 -14 -2z"/>
<path d="M5110 1800 c0 -5 7 -7 15 -4 8 4 15 8 15 10 0 2 -7 4 -15 4 -8 0 -15
-4 -15 -10z"/>
<path d="M5170 1799 c0 -5 5 -7 10 -4 6 3 10 8 10 11 0 2 -4 4 -10 4 -5 0 -10
-5 -10 -11z"/>
<path d="M4785 1079 c-16 -6 -14 -8 13 -8 33 -1 41 4 20 12 -7 2 -22 1 -33 -4z"/>
<path d="M1135 3200 c3 -5 8 -10 11 -10 2 0 4 5 4 10 0 6 -5 10 -11 10 -5 0
-7 -4 -4 -10z"/>
<path d="M4108 2753 c7 -3 16 -2 19 1 4 3 -2 6 -13 5 -11 0 -14 -3 -6 -6z"/>
<path d="M4040 2670 c0 -5 5 -10 10 -10 6 0 10 5 10 10 0 6 -4 10 -10 10 -5 0
-10 -4 -10 -10z"/>
<path d="M4038 2619 c-10 -10 -14 -19 -9 -19 5 0 7 -10 4 -22 -4 -16 -2 -20 5
-13 5 6 12 19 14 30 2 11 11 19 21 19 21 -2 22 12 1 20 -19 7 -15 9 -36 -15z"/>
<path d="M4074 2564 c3 -9 6 -30 7 -47 l1 -32 9 30 c10 33 3 65 -13 65 -5 0
-7 -7 -4 -16z"/>
<path d="M4010 2543 c0 -15 -2 -16 -10 -3 -8 13 -10 13 -10 -1 0 -9 7 -19 15
-23 11 -4 15 1 15 19 0 14 -2 25 -5 25 -3 0 -5 -8 -5 -17z"/>
<path d="M4036 2504 c2 -50 10 -66 20 -40 7 19 -4 86 -14 86 -4 0 -7 -21 -6
-46z"/>
<path d="M3980 2480 c-1 -19 -1 -39 0 -45 1 -5 3 -32 5 -58 1 -26 5 -51 9 -54
3 -3 1 -12 -5 -20 -9 -9 -8 -13 0 -13 6 0 11 6 12 13 2 33 -4 127 -11 167 -7
44 -8 44 -10 10z"/>
<path d="M4041 2410 c0 -33 1 -34 11 -12 8 17 8 26 0 34 -9 9 -12 4 -11 -22z"/>
<path d="M4010 2360 c0 -5 5 -10 10 -10 6 0 10 5 10 10 0 6 -4 10 -10 10 -5 0
-10 -4 -10 -10z"/>
<path d="M4226 2291 c-4 -7 -5 -15 -2 -18 9 -9 19 4 14 18 -4 11 -6 11 -12 0z"/>
<path d="M3950 2196 c0 -2 7 -6 15 -10 8 -3 15 -1 15 4 0 6 -7 10 -15 10 -8 0
-15 -2 -15 -4z"/>
<path d="M4226 2163 c-4 -9 -2 -21 4 -27 7 -7 10 -2 10 17 0 31 -5 34 -14 10z"/>
<path d="M3950 2151 c0 -6 4 -11 9 -11 6 0 12 -15 14 -32 4 -28 4 -26 3 6 0
22 -7 41 -13 44 -7 2 -13 -1 -13 -7z"/>
<path d="M2815 1110 c-3 -5 -1 -10 4 -10 6 0 11 5 11 10 0 6 -2 10 -4 10 -3 0
-8 -4 -11 -10z"/>
<path d="M5721 744 c-12 -14 -11 -16 4 -12 10 1 20 9 23 16 5 17 -10 15 -27
-4z"/>
<path d="M5097 611 c-4 -17 -3 -21 5 -13 5 5 8 16 6 23 -3 8 -7 3 -11 -10z"/>
<path d="M5768 7993 c7 -3 16 -2 19 1 4 3 -2 6 -13 5 -11 0 -14 -3 -6 -6z"/>
<path d="M7038 7893 c7 -3 16 -2 19 1 4 3 -2 6 -13 5 -11 0 -14 -3 -6 -6z"/>
<path d="M1180 7190 c8 -5 22 -9 30 -9 10 0 8 3 -5 9 -27 12 -43 12 -25 0z"/>
<path d="M1880 3151 c0 -5 5 -13 10 -16 6 -3 10 -2 10 4 0 5 -4 13 -10 16 -5
3 -10 2 -10 -4z"/>
<path d="M1895 3120 c-18 -8 -17 -9 8 -9 16 -1 26 3 22 9 -3 6 -7 10 -8 9 -1
0 -11 -4 -22 -9z"/>
<path d="M2338 3113 c12 -2 32 -2 45 0 12 2 2 4 -23 4 -25 0 -35 -2 -22 -4z"/>
<path d="M623 2955 c0 -22 2 -30 4 -17 2 12 2 30 0 40 -3 9 -5 -1 -4 -23z"/>
<path d="M1753 2798 c21 -7 32 -7 40 1 8 8 0 11 -28 10 -40 -1 -40 -1 -12 -11z"/>
<path d="M375 2780 c-3 -5 7 -28 22 -51 24 -36 28 -52 27 -106 l-1 -63 31 23
c81 61 95 69 117 65 l24 -3 -22 -22 -21 -21 42 -46 c23 -25 51 -46 61 -46 18
0 17 3 -7 23 -24 20 -26 24 -14 45 l12 23 12 -25 c6 -15 18 -26 27 -26 8 0 14
-5 12 -12 -1 -8 21 -15 68 -20 105 -12 182 -3 250 27 91 41 183 71 266 86 l74
13 -89 9 c-83 8 -93 7 -163 -18 -83 -31 -138 -30 -181 2 -25 19 -27 19 -121
-9 -97 -29 -121 -30 -121 -4 0 18 -22 26 -49 19 -14 -3 -23 0 -27 11 -3 9 -36
33 -73 53 -36 20 -80 47 -98 60 -34 25 -49 28 -58 13z m235 -150 c0 -5 -4 -10
-10 -10 -5 0 -10 5 -10 10 0 6 5 10 10 10 6 0 10 -4 10 -10z m298 -8 c3 -9 -3
-13 -14 -11 -11 2 -34 -4 -53 -14 -19 -9 -40 -17 -48 -17 -23 0 -14 -18 14
-25 14 -3 36 -13 47 -22 21 -15 21 -15 -4 -8 -14 4 -37 14 -52 21 -15 8 -34
14 -42 14 -9 0 -12 7 -9 21 3 12 11 18 19 15 7 -3 26 1 41 9 15 8 34 15 41 15
6 0 12 5 12 11 0 15 43 7 48 -9z m-263 -2 c-3 -5 -12 -10 -18 -10 -7 0 -6 4 3
10 19 12 23 12 15 0z"/>
<path d="M745 2770 c-16 -7 -11 -9 22 -9 23 -1 45 4 48 9 8 12 -42 12 -70 0z"/>
<path d="M758 2701 c-55 -6 -77 -15 -66 -27 10 -9 127 8 145 22 21 16 20 16
-79 5z"/>
<path d="M1090 2553 c-19 -9 -38 -15 -42 -15 -5 1 -8 -4 -8 -12 0 -8 -7 -17
-16 -20 -9 -4 -14 -9 -11 -12 6 -6 40 10 65 32 9 7 26 20 37 28 26 20 19 19
-25 -1z"/>
<path d="M965 2433 l-17 -28 23 22 c12 12 20 25 17 28 -3 3 -13 -7 -23 -22z"/>
<path d="M871 2334 c-63 -62 -66 -63 -110 -59 -45 5 -45 4 -13 -7 17 -6 32
-15 32 -19 0 -4 -17 -26 -38 -48 -21 -22 -35 -42 -32 -43 4 -2 -6 -16 -22 -33
-25 -25 -29 -27 -24 -9 6 19 3 21 -19 16 -22 -4 -23 -6 -10 -16 14 -10 12 -12
-13 -14 -41 -3 -51 24 -12 33 39 9 56 30 40 50 -18 22 -37 18 -44 -7 -3 -13
-21 -30 -41 -39 -33 -15 -36 -15 -56 2 -24 21 -39 24 -39 9 0 -5 5 -10 12 -10
6 0 9 -3 5 -6 -3 -3 -25 9 -49 29 -24 19 -54 40 -68 47 -20 10 -17 4 15 -30
41 -43 88 -74 98 -64 10 10 77 -17 77 -30 0 -9 33 -15 122 -19 150 -9 243 -9
251 -1 6 7 -28 67 -49 84 -15 13 -20 70 -6 70 5 0 14 29 21 65 7 36 17 68 22
71 13 8 31 44 22 43 -4 0 -37 -30 -72 -65z"/>
<path d="M1489 2248 c-1 -18 -3 -43 -4 -56 -1 -12 1 -25 5 -27 14 -8 27 19 34
68 7 43 6 47 -13 47 -17 0 -21 -7 -22 -32z"/>
<path d="M904 2226 c-3 -21 -4 -39 -1 -42 3 -4 9 10 13 30 3 21 4 39 1 42 -3
4 -9 -10 -13 -30z"/>
<path d="M306 2201 c25 -43 43 -58 79 -67 28 -6 27 -5 -19 37 -69 62 -83 69
-60 30z"/>
<path d="M720 2205 c-7 -9 -8 -15 -2 -15 5 0 12 7 16 15 3 8 4 15 2 15 -2 0
-9 -7 -16 -15z"/>
<path d="M921 2184 c0 -11 3 -14 6 -6 3 7 2 16 -1 19 -3 4 -6 -2 -5 -13z"/>
<path d="M961 2189 c-1 -4 -8 -23 -16 -42 -18 -43 -3 -59 21 -22 13 20 14 31
6 48 -6 12 -11 19 -11 16z"/>
<path d="M1245 2160 c3 -5 23 -10 43 -9 30 0 33 2 17 9 -28 12 -67 12 -60 0z"/>
<path d="M1023 2125 c-3 -9 -3 -18 -1 -21 3 -3 8 4 11 16 6 23 -1 27 -10 5z"/>
<path d="M1255 2090 c3 -5 18 -10 33 -10 21 0 24 2 12 10 -20 13 -53 13 -45 0z"/>
<path d="M455 2050 c3 -5 15 -10 25 -10 10 0 22 5 25 10 4 6 -7 10 -25 10 -18
0 -29 -4 -25 -10z"/>
<path d="M603 1703 c9 -2 23 -2 30 0 6 3 -1 5 -18 5 -16 0 -22 -2 -12 -5z"/>
<path d="M616 1493 c-38 -4 -59 -17 -63 -41 -2 -7 7 -12 20 -11 12 0 16 3 10
6 -29 11 -10 23 36 23 27 0 56 3 65 6 20 8 11 25 -12 22 -9 -1 -35 -3 -56 -5z"/>
<path d="M640 1430 c0 -5 7 -7 15 -4 8 4 15 8 15 10 0 2 -7 4 -15 4 -8 0 -15
-4 -15 -10z"/>
</g>
</svg>
